<?xml version="1.0" encoding="utf-8"?>
<!-- Generator: Adobe Illustrator 24.0.1, SVG Export Plug-In . SVG Version: 6.00 Build 0)  -->
<svg version="1.1" id="Layer_1" xmlns="http://www.w3.org/2000/svg" xmlns:xlink="http://www.w3.org/1999/xlink" x="0px" y="0px"
	 viewBox="0 0 42.52 219.45" style="enable-background:new 0 0 42.52 219.45;" xml:space="preserve">
<style type="text/css">
	.st0{fill:#010202;}
	.st1{fill:#2F294E;}
	.st2{fill:#D8273E;}
	.st3{fill:none;stroke:#D8273E;stroke-width:0.8963;stroke-miterlimit:10;}
	.st4{fill:#EC603A;}
	.st5{fill:#19998B;}
	.st6{fill:#C4D76D;}
	.st7{fill:none;stroke:#EC603A;stroke-width:0.9436;stroke-miterlimit:10;}
	.st8{fill:none;stroke:#D8273E;stroke-width:3.4614;stroke-miterlimit:10;}
</style>
<rect x="-1230.45" y="-228.79" class="st0" width="841.89" height="595.28"/>
<rect x="-2525.96" y="-228.79" class="st1" width="841.89" height="595.28"/>
<rect x="-2412.14" y="-135.92" class="st2" width="614.24" height="409.53"/>
<g>
	<path class="st2" d="M-1941.39,41.36c0,0,0,9.99,0,10.54c0,1.86,1.51,3.36,3.36,3.36c1.86,0,3.36-1.51,3.36-3.36
		c0-0.64,0-10.54,0-10.54H-1941.39z"/>
	<ellipse class="st3" cx="-1938.03" cy="41.36" rx="12.49" ry="4.05"/>
	<path class="st2" d="M-1934.66,41.38c0,0,0-9.99,0-10.54c0-1.86-1.51-3.36-3.36-3.36c-1.86,0-3.36,1.51-3.36,3.36
		c0,0.64,0,10.54,0,10.54H-1934.66z"/>
</g>
<path class="st4" d="M-924.23,204.74h-51.43V29.29c0-14.2,11.51-25.72,25.72-25.72h0c14.2,0,25.72,11.51,25.72,25.72V204.74z"/>
<path class="st5" d="M-854.05,204.74h-51.43V29.29c0-14.2,11.51-25.72,25.72-25.72h0c14.2,0,25.72,11.51,25.72,25.72V204.74z"/>
<path class="st1" d="M-783.87,204.74h-51.43V29.29c0-14.2,11.51-25.72,25.72-25.72h0c14.2,0,25.72,11.51,25.72,25.72V204.74z"/>
<path class="st2" d="M-713.68,204.74h-51.43V29.29c0-14.2,11.51-25.72,25.72-25.72h0c14.2,0,25.72,11.51,25.72,25.72V204.74z"/>
<path class="st6" d="M-643.5,204.74h-51.43V29.29c0-14.2,11.51-25.72,25.72-25.72h0c14.2,0,25.72,11.51,25.72,25.72V204.74z"/>
<g>
	<path class="st3" d="M-1938.03-4.25c0,0,1.03,9.83,8.75,9.83"/>
	<line class="st3" x1="-1938.03" y1="15.62" x2="-1938.03" y2="-4.25"/>
	<path class="st3" d="M-1938.03-4.25c0,0-1.03,9.83-8.75,9.83"/>
</g>
<g>
	<rect x="-2027.7" y="-85.77" class="st6" width="167.16" height="309.23"/>
	<rect x="-1966.65" y="-7.02" class="st5" width="45.05" height="119.63"/>
	<g>
		<g>
			<path class="st1" d="M-1921.59,175.41c0,0,0-66.88,0-70.54c0-12.44-10.09-22.53-22.53-22.53s-22.53,10.09-22.53,22.53
				c0,4.29,0,70.54,0,70.54H-1921.59z"/>
		</g>
		<circle class="st2" cx="-1944.12" cy="104.16" r="8.46"/>
		<polygon class="st2" points="-1966.65,175.41 -1944.12,128.88 -1921.59,175.41 		"/>
	</g>
	<g>
		<g>
			<path class="st1" d="M-1966.65-57.11c0,0,0,66.88,0,70.54c0,12.44,10.09,22.53,22.53,22.53s22.53-10.09,22.53-22.53
				c0-4.29,0-70.54,0-70.54H-1966.65z"/>
		</g>
		<circle class="st2" cx="-1944.12" cy="13.84" r="8.46"/>
		<polygon class="st2" points="-1921.59,-57.11 -1944.12,-10.57 -1966.65,-57.11 		"/>
	</g>
	<g>
		<path class="st1" d="M-1959.88,55.49v10.03c0,3.17,7.06,5.74,15.76,5.74c8.7,0,15.76-2.57,15.76-5.74V55.49H-1959.88z"/>
		<ellipse class="st4" cx="-1944.12" cy="55.49" rx="15.76" ry="5.74"/>
	</g>
</g>
<g>
	<g>
		<rect x="-2349.49" y="-85.77" class="st1" width="321.79" height="309.23"/>
	</g>
</g>
<circle class="st4" cx="-2293.5" cy="-32.74" r="22.16"/>
<path class="st7" d="M-2074.14-47.5h-153.49c-8.16,0-14.77,6.61-14.77,14.77v0c0,8.16,6.61,14.77,14.77,14.77h153.49
	c8.16,0,14.77-6.61,14.77-14.77v0C-2059.37-40.89-2065.99-47.5-2074.14-47.5z"/>
<g>
	<path class="st8" d="M-792.61-112.12c0,0,3.98,37.97,33.78,37.97"/>
	<line class="st8" x1="-792.61" y1="-35.38" x2="-792.61" y2="-112.12"/>
	<path class="st8" d="M-792.61-112.12c0,0-3.98,37.97-33.78,37.97"/>
</g>
<g>
	<path class="st6" d="M-2313.04,61.23v-7.09l3.08-0.04c3.44-0.04,4.89-1.01,4.89-4.71v-17.4h7.88v17.22
		c0,8.59-3.13,12.02-11.58,12.02H-2313.04z"/>
	<path class="st6" d="M-2292.26,47.1v-15.1h8.28v15.72c0,5.24,2.07,7.05,6.17,7.05c4.14,0,6.21-1.81,6.21-7.05V31.99h8.23v15.1
		c0,10-4.54,14.71-14.44,14.75C-2287.68,61.89-2292.26,57.09-2292.26,47.1z"/>
	<path class="st6" d="M-2260.34,51.81v-0.22h7.44v0.18c0,2.33,2.11,3.52,5.81,3.52c3.48,0,5.06-0.75,5.06-2.47v-0.09
		c-0.04-1.63-1.23-2.11-3.48-2.38l-4.1-0.44c-6.17-0.66-10.35-3.04-10.39-9.56v-0.09c0-5.37,3.65-8.9,12.64-8.9
		c8.9,0,12.42,4.18,12.42,9.73v0.22h-7.44v-0.18c0-2.11-1.76-3.21-5.2-3.21c-3.44,0-4.58,0.66-4.58,2.2v0.09
		c0,1.58,1.19,2.25,3.92,2.55l4.84,0.53c5.28,0.57,9.16,3.08,9.16,8.94v0.13c0,6.21-4.4,9.47-12.86,9.47
		C-2257.08,61.85-2260.34,57.36-2260.34,51.81z"/>
	<path class="st6" d="M-2206.44,31.99v7.13h-8.76v22.11h-7.88V39.13h-8.76v-7.13H-2206.44z"/>
	<path class="st6" d="M-2292.48,114.07l-7.35-11.19l-3.43,3.74v7.44h-7.88V84.83h7.88v11.23l9.64-11.23h10.44l-11.01,11.93
		l11.41,17.31H-2292.48z"/>
	<path class="st6" d="M-2256.46,91.96h-14.93v4.36h12.33v6.39h-12.33v4.27h14.93v7.09h-22.81V84.83h22.81V91.96z"/>
	<path class="st6" d="M-2229.03,91.96h-14.93v4.36h12.33v6.39h-12.33v4.27h14.93v7.09h-22.81V84.83h22.81V91.96z"/>
	<path class="st6" d="M-2211.29,84.83c7.88,0,11.67,2.82,11.71,9.69v0.09c0,6.83-3.79,9.78-11.71,9.78h-5.24v9.69h-7.88V84.83
		H-2211.29z M-2207.63,94.52c0-1.85-0.97-2.95-3.66-2.95h-5.24v6.08h5.24c2.73,0,3.66-1.14,3.66-3.04V94.52z"/>
	<path class="st6" d="M-2300.14,150.53h16.87v16.38h-7.35l-0.31-2.77c-1.81,2.25-4.71,3.39-9.2,3.39c-7.62,0-12.02-4.71-12.02-14.05
		v-2.47c0-9.25,4.49-13.96,14.58-13.96c9.2,0,13.83,3.61,13.96,10.57v0.26h-8.06v-0.18c-0.09-2.82-2.16-3.92-5.9-3.92
		c-4.49,0-6.52,1.89-6.52,7.18v2.6c0,5.33,2.03,7.22,6.3,7.22c3.3,0,5.64-1.01,6.34-3.61v-0.84h-8.68V150.53z"/>
	<path class="st6" d="M-2279.05,153.52v-2.51c0-9.2,4.71-13.87,14.88-13.92c10.22-0.04,14.88,4.71,14.88,13.92v2.51
		c0,9.25-4.67,13.96-14.88,13.96C-2274.34,167.52-2279.05,162.77-2279.05,153.52z M-2257.52,153.21v-1.94c0-5.2-2.2-7.09-6.65-7.09
		c-4.4,0-6.61,1.89-6.61,7.09v1.94c0,5.24,2.2,7.18,6.61,7.18C-2259.72,160.39-2257.52,158.45-2257.52,153.21z"/>
	<path class="st6" d="M-2244.57,166.91v-29.24h7.88v29.24H-2244.57z"/>
	<path class="st6" d="M-2211.37,137.67h7.57v29.24h-9.64l-9.95-16.69v16.69h-7.62v-29.24h9.25l10.39,17.26V137.67z"/>
	<path class="st6" d="M-2187.07,150.53h16.87v16.38h-7.35l-0.31-2.77c-1.81,2.25-4.71,3.39-9.2,3.39c-7.62,0-12.02-4.71-12.02-14.05
		v-2.47c0-9.25,4.49-13.96,14.58-13.96c9.2,0,13.83,3.61,13.96,10.57v0.26h-8.06v-0.18c-0.09-2.82-2.16-3.92-5.9-3.92
		c-4.49,0-6.52,1.89-6.52,7.18v2.6c0,5.33,2.03,7.22,6.3,7.22c3.3,0,5.64-1.01,6.34-3.61v-0.84h-8.68V150.53z"/>
</g>
<path class="st7" d="M-2074.14-47.5h-153.49c-8.16,0-14.77,6.61-14.77,14.77v0c0,8.16,6.61,14.77,14.77,14.77h153.49
	c8.16,0,14.77-6.61,14.77-14.77v0C-2059.37-40.89-2065.99-47.5-2074.14-47.5z"/>
<g>
	<rect x="0" y="47.27" class="st5" width="42.52" height="112.91"/>
	<g>
		<g>
			<path class="st1" d="M42.52,219.45c0,0,0-63.13,0-66.58c0-11.74-9.52-21.26-21.26-21.26S0,141.13,0,152.87
				c0,4.05,0,66.58,0,66.58H42.52z"/>
		</g>
		<circle class="st2" cx="21.26" cy="152.2" r="7.98"/>
		<polygon class="st2" points="0,219.45 21.26,175.53 42.52,219.45 		"/>
	</g>
	<g>
		<g>
			<path class="st1" d="M0,0c0,0,0,63.13,0,66.58c0,11.74,9.52,21.26,21.26,21.26s21.26-9.52,21.26-21.26c0-4.05,0-66.58,0-66.58H0z
				"/>
		</g>
		<circle class="st2" cx="21.26" cy="66.96" r="7.98"/>
		<polygon class="st2" points="42.52,0 21.26,43.92 0,0 		"/>
	</g>
	<g>
		<path class="st1" d="M6.39,106.27v9.47c0,2.99,6.66,5.42,14.87,5.42s14.87-2.43,14.87-5.42v-9.47H6.39z"/>
		<ellipse class="st4" cx="21.26" cy="106.27" rx="14.87" ry="5.42"/>
	</g>
</g>
</svg>
